<svg xmlns="http://www.w3.org/2000/svg" viewBox="0 0 1024 1024">
  <defs>
    <linearGradient id="g" x1="0" x2="1" y1="0" y2="1">
      <stop offset="0" stop-color="#875A7B" stop-opacity="1"></stop>
      <stop offset="1" stop-color="#875A7B" stop-opacity="0.85"></stop>
    </linearGradient>
    <style>
      .stroke{stroke:#875A7B;stroke-width:36;stroke-linecap:round;stroke-linejoin:round;fill:none}
    </style>
  </defs>

  <!-- Sombra suave -->
  <rect x="140" y="120" rx="48" ry="48" width="744" height="864" fill="url(#g)" opacity="0.06"></rect>

  <!-- Pila de documentos -->
  <rect x="220" y="240" width="520" height="640" rx="28" class="stroke"></rect>
  <path d="M740 360H420a28 28 0 0 1-28-28V204" class="stroke"></path>

  <!-- Esquina doblada -->
  <path d="M692 240v88c0 11-9 20-20 20h-88" class="stroke"></path>

  <!-- Etiqueta 'XML' estilizada: <  />  -->
  <path d="M360 520 L300 560 360 600" class="stroke"></path>
  <path d="M500 480 L440 640" class="stroke"></path>
  <path d="M540 520 L600 560 540 600" class="stroke"></path>

  <!-- Check de validación -->
  <circle cx="760" cy="720" r="112" fill="#fff" stroke="#875A7B" stroke-width="32"></circle>
  <path d="M700 720 l40 40 80-96" class="stroke"></path>

  <!-- Indicador de “lotes” (varias facturas) -->
  <path d="M240 712 h260" class="stroke" opacity="0.6"></path>
  <path d="M240 772 h200" class="stroke" opacity="0.6"></path>
</svg>
